<svg version="1.1" id="Layer_1" xmlns="http://www.w3.org/2000/svg" xmlns:xlink="http://www.w3.org/1999/xlink" x="0px" y="0px"
	 width="100%" viewBox="0 0 500 500" enable-background="new 0 0 500 500" xml:space="preserve">
<path fill="#000000" opacity="1.000000" stroke="none" 
	d="
M225.000000,501.000000 
	C150.000015,501.000000 75.500038,501.000000 1.000040,501.000000 
	C1.000027,334.333405 1.000027,167.666779 1.000013,1.000129 
	C167.666565,1.000086 334.333130,1.000086 500.999756,1.000043 
	C500.999847,167.666534 500.999847,334.333069 500.999939,500.999817 
	C409.166656,501.000000 317.333344,501.000000 225.000000,501.000000 
M146.929092,251.888107 
	C146.902145,235.006744 146.875198,218.125366 146.928284,200.324265 
	C147.509277,195.754517 148.183578,191.194122 148.643265,186.612213 
	C149.048080,182.577026 151.523071,180.414322 155.030823,179.252502 
	C157.041794,178.586426 159.185394,178.257843 161.295486,177.968216 
	C164.799438,177.487305 164.504822,174.772003 163.923447,172.707321 
	C163.600174,171.559265 161.527374,170.211853 160.206284,170.171936 
	C156.813354,170.069458 153.399902,170.646820 149.656693,170.140076 
	C140.779190,170.121750 131.901672,170.103424 122.392220,170.275177 
	C119.043709,170.435989 115.695198,170.596786 112.163162,170.766403 
	C111.346474,174.718231 111.300476,177.740891 117.133301,178.301865 
	C121.700073,178.741074 124.727959,182.484283 125.673500,186.969559 
	C126.788963,192.260834 127.219429,197.696518 127.204102,203.495972 
	C127.174255,235.288300 127.144402,267.080627 126.963318,299.647186 
	C126.492912,301.004486 126.425545,303.034149 125.480957,303.600342 
	C121.782402,305.817230 117.933403,307.924225 113.890526,309.376862 
	C111.110291,310.375854 109.067680,311.606506 110.263031,314.464630 
	C110.796211,315.739471 113.412460,316.847656 115.073288,316.833740 
	C127.282738,316.731628 139.491089,316.026642 151.697021,316.085907 
	C170.589600,316.177612 189.480133,316.716583 208.371078,317.088867 
	C211.925903,317.158905 214.332169,317.051514 215.009323,312.077820 
	C215.895416,305.569611 218.614075,299.310486 220.548798,292.945557 
	C221.482697,289.873291 222.426636,286.804047 223.342896,283.808990 
	C219.397659,281.880646 216.670242,281.076843 214.593826,285.465118 
	C208.965881,297.359100 198.379837,302.141174 186.187836,303.337128 
	C174.991074,304.435425 163.682999,304.464813 152.418854,304.784912 
	C146.017319,304.966888 145.912674,304.802521 146.015686,298.153564 
	C146.249908,283.034180 146.592361,267.916412 146.929092,251.888107 
M371.944458,197.246353 
	C372.318939,183.082504 372.954376,182.164978 385.363556,177.877899 
	C385.675171,177.770233 386.215179,177.749680 386.272522,177.569077 
	C386.832886,175.803970 387.668823,174.007401 387.638702,172.233139 
	C387.626892,171.537247 385.628693,170.293823 384.527222,170.285004 
	C368.622711,170.157333 352.716797,170.197601 336.825134,170.197601 
	C336.487488,174.873840 337.135742,178.068604 343.078979,178.250443 
	C348.129456,178.404953 350.841614,182.508728 351.718903,187.181900 
	C352.504547,191.366745 352.516235,195.696869 352.101532,200.373474 
	C352.041565,210.630295 351.963013,220.887100 351.966949,231.143906 
	C351.967194,231.771164 352.620331,232.398148 352.903839,233.817764 
	C351.605011,234.484100 350.309113,235.724792 349.006927,235.731415 
	C326.020447,235.848297 303.033051,235.775818 280.046326,235.860703 
	C276.997589,235.871948 275.884094,234.749283 275.979034,231.770477 
	C276.397156,218.650238 276.460876,205.513168 277.160736,192.409332 
	C277.634033,183.548019 281.680420,178.090515 288.407440,177.830399 
	C294.768097,177.584442 292.802490,174.297714 292.396851,170.757568 
	C275.473877,170.757568 258.882996,170.757568 242.216217,170.757568 
	C242.216217,173.135300 242.216217,175.102737 242.216217,177.320770 
	C248.155075,177.935272 253.631180,179.482697 255.603394,185.735397 
	C256.835022,189.640213 257.875610,193.804642 257.900085,197.859222 
	C258.087006,228.840668 258.037170,259.823822 257.985535,290.806305 
	C257.965942,302.553284 255.751648,305.478638 244.751755,309.088348 
	C244.280869,309.242889 243.710220,309.390228 243.417633,309.736542 
	C242.488968,310.835754 241.070480,311.953003 240.915268,313.197205 
	C240.323471,317.941101 242.725433,318.713562 248.859726,317.977142 
	C256.985565,317.001648 265.234344,316.786652 273.431763,316.763123 
	C278.982880,316.747162 284.530518,317.725861 290.091827,318.054657 
	C292.673706,318.207306 295.015350,317.622253 295.243408,314.230225 
	C295.438507,311.328644 294.370209,309.903381 291.333191,309.815582 
	C289.541565,309.763763 287.751343,309.247223 285.984558,308.836365 
	C282.090424,307.930664 278.744385,306.312500 278.096252,301.801422 
	C277.344116,296.566620 276.243286,291.330292 276.091309,286.071625 
	C275.778717,275.253418 276.180756,264.415222 275.906982,253.594879 
	C275.795776,249.200638 277.182404,247.715286 281.591156,247.923538 
	C293.038452,248.464310 304.502533,248.879379 315.960541,248.895721 
	C326.084961,248.910172 336.208984,248.258804 346.336212,248.049271 
	C348.241333,248.009842 350.160828,248.666687 351.929718,249.933777 
	C351.925293,261.154053 351.883942,272.374542 351.961212,283.594269 
	C351.971344,285.068420 352.588776,286.538422 352.969482,288.917755 
	C352.467957,293.498230 352.659760,298.298737 351.293121,302.604645 
	C349.497467,308.262085 343.777283,308.667236 338.842041,310.031189 
	C337.340179,310.446289 336.341278,312.681091 335.112030,314.082489 
	C336.705414,315.022064 338.298828,316.765778 339.892181,316.765717 
	C347.944580,316.765320 355.997620,316.070404 364.049225,316.090698 
	C370.770630,316.107635 377.489227,316.970642 384.211731,317.010773 
	C385.776611,317.020142 387.352356,315.211884 388.923126,314.239960 
	C387.730438,312.795807 386.766571,311.009766 385.275269,310.011780 
	C383.998383,309.157257 381.755096,309.673218 380.576599,308.760284 
	C377.883636,306.674255 374.501099,304.499512 373.385498,301.597107 
	C371.898102,297.727631 372.296387,293.133301 371.955841,287.933014 
	C371.931610,258.002625 371.907379,228.072220 371.944458,197.246353 
z"/>
<path fill="#153A4C" opacity="1.000000" stroke="none" 
	d="
M371.884705,288.850342 
	C372.296387,293.133301 371.898102,297.727631 373.385498,301.597107 
	C374.501099,304.499512 377.883636,306.674255 380.576599,308.760284 
	C381.755096,309.673218 383.998383,309.157257 385.275269,310.011780 
	C386.766571,311.009766 387.730438,312.795807 388.923126,314.239929 
	C387.352356,315.211884 385.776611,317.020142 384.211731,317.010773 
	C377.489227,316.970642 370.770630,316.107635 364.049225,316.090698 
	C355.997620,316.070404 347.944580,316.765320 339.892181,316.765717 
	C338.298828,316.765778 336.705414,315.022064 335.112030,314.082489 
	C336.341278,312.681091 337.340179,310.446289 338.842041,310.031189 
	C343.777283,308.667236 349.497467,308.262085 351.293121,302.604645 
	C352.659760,298.298737 352.467957,293.498230 353.015808,287.997070 
	C353.075500,275.686523 353.122070,264.296448 353.056854,252.907013 
	C353.049347,251.603577 352.416565,250.303741 352.073700,249.002228 
	C350.160828,248.666687 348.241333,248.009842 346.336212,248.049271 
	C336.208984,248.258804 326.084961,248.910172 315.960541,248.895721 
	C304.502533,248.879379 293.038452,248.464310 281.591156,247.923538 
	C277.182404,247.715286 275.795776,249.200638 275.906982,253.594879 
	C276.180756,264.415222 275.778717,275.253418 276.091309,286.071625 
	C276.243286,291.330292 277.344116,296.566620 278.096252,301.801422 
	C278.744385,306.312500 282.090424,307.930664 285.984558,308.836365 
	C287.751343,309.247223 289.541565,309.763763 291.333191,309.815582 
	C294.370209,309.903381 295.438507,311.328644 295.243408,314.230225 
	C295.015350,317.622253 292.673706,318.207306 290.091827,318.054657 
	C284.530518,317.725861 278.982880,316.747162 273.431763,316.763123 
	C265.234344,316.786652 256.985565,317.001648 248.859726,317.977142 
	C242.725433,318.713562 240.323471,317.941101 240.915268,313.197205 
	C241.070480,311.953003 242.488968,310.835754 243.417633,309.736542 
	C243.710220,309.390228 244.280869,309.242889 244.751755,309.088348 
	C255.751648,305.478638 257.965942,302.553284 257.985535,290.806305 
	C258.037170,259.823822 258.087006,228.840668 257.900085,197.859222 
	C257.875610,193.804642 256.835022,189.640213 255.603394,185.735397 
	C253.631180,179.482697 248.155075,177.935272 242.216217,177.320770 
	C242.216217,175.102737 242.216217,173.135300 242.216217,170.757568 
	C258.882996,170.757568 275.473877,170.757568 292.396851,170.757568 
	C292.802490,174.297714 294.768097,177.584442 288.407440,177.830399 
	C281.680420,178.090515 277.634033,183.548019 277.160736,192.409332 
	C276.460876,205.513168 276.397156,218.650238 275.979034,231.770477 
	C275.884094,234.749283 276.997589,235.871948 280.046326,235.860703 
	C303.033051,235.775818 326.020447,235.848297 349.006927,235.731415 
	C350.309113,235.724792 351.605011,234.484100 352.994904,232.953491 
	C353.013794,221.380463 352.941620,210.671677 352.869415,199.962906 
	C352.516235,195.696869 352.504547,191.366745 351.718903,187.181900 
	C350.841614,182.508728 348.129456,178.404953 343.078979,178.250443 
	C337.135742,178.068604 336.487488,174.873840 336.825134,170.197601 
	C352.716797,170.197601 368.622711,170.157333 384.527222,170.285004 
	C385.628693,170.293823 387.626892,171.537247 387.638702,172.233139 
	C387.668823,174.007401 386.832886,175.803970 386.272522,177.569077 
	C386.215179,177.749680 385.675171,177.770233 385.363556,177.877899 
	C372.954376,182.164978 372.318939,183.082504 371.573456,197.935974 
	C371.146545,227.990875 371.084656,257.356171 371.070404,286.721466 
	C371.070068,287.430939 371.601379,288.140717 371.884705,288.850342 
z"/>
<path fill="#153A4C" opacity="1.000000" stroke="none" 
	d="
M149.994644,170.952438 
	C153.399902,170.646820 156.813354,170.069458 160.206284,170.171936 
	C161.527374,170.211853 163.600174,171.559265 163.923447,172.707321 
	C164.504822,174.772003 164.799438,177.487305 161.295486,177.968216 
	C159.185394,178.257843 157.041794,178.586426 155.030823,179.252502 
	C151.523071,180.414322 149.048080,182.577026 148.643265,186.612213 
	C148.183578,191.194122 147.509277,195.754517 146.628784,201.089294 
	C146.253876,218.279480 146.170685,234.704620 146.136536,251.129883 
	C146.135391,251.685410 146.628250,252.241943 146.890854,252.798004 
	C146.592361,267.916412 146.249908,283.034180 146.015686,298.153564 
	C145.912674,304.802521 146.017319,304.966888 152.418854,304.784912 
	C163.682999,304.464813 174.991074,304.435425 186.187836,303.337128 
	C198.379837,302.141174 208.965881,297.359100 214.593826,285.465118 
	C216.670242,281.076843 219.397659,281.880646 223.342896,283.808990 
	C222.426636,286.804047 221.482697,289.873291 220.548798,292.945557 
	C218.614075,299.310486 215.895416,305.569611 215.009323,312.077820 
	C214.332169,317.051514 211.925903,317.158905 208.371078,317.088867 
	C189.480133,316.716583 170.589600,316.177612 151.697021,316.085907 
	C139.491089,316.026642 127.282738,316.731628 115.073288,316.833740 
	C113.412460,316.847656 110.796211,315.739471 110.263031,314.464630 
	C109.067680,311.606506 111.110291,310.375854 113.890526,309.376862 
	C117.933403,307.924225 121.782402,305.817230 125.480957,303.600342 
	C126.425545,303.034149 126.492912,301.004486 127.291573,298.938232 
	C127.746223,296.747253 127.982590,295.265289 127.982796,293.783264 
	C127.987022,263.545380 127.964264,233.307480 127.946877,203.069595 
	C127.219429,197.696518 126.788963,192.260834 125.673500,186.969559 
	C124.727959,182.484283 121.700073,178.741074 117.133301,178.301865 
	C111.300476,177.740891 111.346474,174.718231 112.163162,170.766403 
	C115.695198,170.596786 119.043709,170.435989 122.895187,170.574097 
	C132.263657,170.899490 141.129150,170.925964 149.994644,170.952438 
z"/>
<path fill="#8B9DA6" opacity="1.000000" stroke="none" 
	d="
M127.575485,203.282776 
	C127.964264,233.307480 127.987022,263.545380 127.982796,293.783264 
	C127.982590,295.265289 127.746223,296.747253 127.367188,298.551086 
	C127.144402,267.080627 127.174255,235.288300 127.575485,203.282776 
z"/>
<path fill="#CED6D9" opacity="1.000000" stroke="none" 
	d="
M371.920288,288.391663 
	C371.601379,288.140717 371.070068,287.430939 371.070404,286.721466 
	C371.084656,257.356171 371.146545,227.990875 371.542786,198.383698 
	C371.907379,228.072220 371.931610,258.002625 371.920288,288.391663 
z"/>
<path fill="#CED6D9" opacity="1.000000" stroke="none" 
	d="
M146.909973,252.343048 
	C146.628250,252.241943 146.135391,251.685410 146.136536,251.129883 
	C146.170685,234.704620 146.253876,218.279480 146.588776,201.549164 
	C146.875198,218.125366 146.902145,235.006744 146.909973,252.343048 
z"/>
<path fill="#CED6D9" opacity="1.000000" stroke="none" 
	d="
M352.001709,249.468002 
	C352.416565,250.303741 353.049347,251.603577 353.056854,252.907013 
	C353.122070,264.296448 353.075500,275.686523 352.993530,287.543396 
	C352.588776,286.538422 351.971344,285.068420 351.961212,283.594269 
	C351.883942,272.374542 351.925293,261.154053 352.001709,249.468002 
z"/>
<path fill="#CED6D9" opacity="1.000000" stroke="none" 
	d="
M352.485474,200.168182 
	C352.941620,210.671677 353.013794,221.380463 353.027832,232.557251 
	C352.620331,232.398148 351.967194,231.771164 351.966949,231.143906 
	C351.963013,220.887100 352.041565,210.630295 352.485474,200.168182 
z"/>
<path fill="#CED6D9" opacity="1.000000" stroke="none" 
	d="
M149.825668,170.546265 
	C141.129150,170.925964 132.263657,170.899490 123.211166,170.479065 
	C131.901672,170.103424 140.779190,170.121750 149.825668,170.546265 
z"/>
</svg>